<svg width="42" height="30" viewBox="0 0 42 30" fill="none" xmlns="http://www.w3.org/2000/svg">
<path d="M26.4774 30C18.1659 30 11.4041 23.2473 11.4041 14.9472C11.4041 12.9241 13.0465 11.2839 15.0724 11.2839C17.0984 11.2839 18.7408 12.9241 18.7408 14.9472C18.7408 19.2075 22.2114 22.6733 26.4774 22.6733C30.7433 22.6733 34.2138 19.2075 34.2138 14.9472V9.81644C34.2138 7.79327 35.8563 6.15305 37.8822 6.15305C39.908 6.15305 41.5505 7.79327 41.5505 9.81644V14.9472C41.5505 23.2473 34.7886 30 26.4774 30Z" fill="#DEDBDE"/>
<path d="M3.66838 23.8469C1.64244 23.8469 0 22.2067 0 20.1835V15.0526C0 6.75256 6.76185 0 15.0731 0C23.3846 0 30.1464 6.75256 30.1464 15.0526C30.1464 17.0758 28.504 18.7159 26.4781 18.7159C24.4522 18.7159 22.8097 17.0758 22.8097 15.0526C22.8097 10.7925 19.3392 7.32662 15.0731 7.32662C10.8073 7.32662 7.33675 10.7925 7.33675 15.0526V20.1835C7.33675 22.2067 5.69431 23.8469 3.66838 23.8469Z" fill="#DEDBDE"/>
</svg>
